<?xml version="1.0" encoding="UTF-8"?>
<svg version="1.1" xmlns="http://www.w3.org/2000/svg" width="500" height="500">
<path d="M0 0 C0.87759476 -0.00302124 1.75518951 -0.00604248 2.65937805 -0.00915527 C3.60629013 -0.00202515 4.55320221 0.00510498 5.52880859 0.01245117 C6.51950851 0.01241089 7.51020844 0.01237061 8.53092957 0.0123291 C11.74650452 0.01571939 14.9617403 0.03456114 18.17724609 0.05541992 C20.37084903 0.06427207 22.56445256 0.07297969 24.75805664 0.08154297 C36.29410999 0.13841526 47.83309433 0.21605256 59.36474609 0.55541992 C60.39229004 0.57773682 61.41983398 0.60005371 62.47851562 0.62304688 C63.85499268 0.67658325 63.85499268 0.67658325 65.25927734 0.73120117 C66.02731689 0.75738525 66.79535645 0.78356934 67.58666992 0.81054688 C70.13298669 1.37066698 71.0397546 2.13015836 72.55224609 4.24291992 C72.89282227 6.32763672 72.89282227 6.32763672 72.84521484 8.69213867 C72.83554688 9.53969727 72.82587891 10.38725586 72.81591797 11.26049805 C72.79078125 12.14157227 72.76564453 13.02264648 72.73974609 13.93041992 C72.71944336 15.26943359 72.71944336 15.26943359 72.69873047 16.63549805 C72.66338688 18.83858158 72.61405102 21.04044574 72.55224609 23.24291992 C71.99794922 23.49686523 71.44365234 23.75081055 70.87255859 24.01245117 C69.78587891 24.5287207 69.78587891 24.5287207 68.67724609 25.05541992 C67.95794922 25.39186523 67.23865234 25.72831055 66.49755859 26.07495117 C64.24681803 27.23759089 64.24681803 27.23759089 62.55224609 30.24291992 C62.00602472 33.63524215 62.02088545 36.84871828 62.55224609 40.24291992 C65.41434884 44.16808941 68.1083316 45.56991682 72.55224609 47.24291992 C72.66868765 50.32593408 72.73957041 53.40838116 72.80224609 56.49291992 C72.83576172 57.36561523 72.86927734 58.23831055 72.90380859 59.13745117 C72.92314453 60.40395508 72.92314453 60.40395508 72.94287109 61.69604492 C72.97429199 62.85861816 72.97429199 62.85861816 73.00634766 64.04467773 C72.35038471 67.22010266 71.09654345 68.25560196 68.55224609 70.24291992 C65.24412537 70.75758362 65.24412537 70.75758362 61.26098633 70.77636719 C60.53370331 70.78498276 59.80642029 70.79359833 59.05709839 70.80247498 C56.65798152 70.82514111 54.26003185 70.81839691 51.86083984 70.80932617 C50.1922216 70.81456068 48.52360633 70.82083653 46.85499573 70.82810974 C43.36046407 70.83851444 39.86633962 70.83395048 36.37182617 70.81933594 C31.8899929 70.80212788 27.4094392 70.82566672 22.92774868 70.86082554 C19.4833372 70.88276475 16.03923373 70.88136697 12.59477425 70.87306023 C10.94212501 70.87223917 9.2894535 70.87913211 7.63686943 70.89383125 C5.32847755 70.91121915 3.02240887 70.89678825 0.71411133 70.87402344 C-0.59952896 70.87306168 -1.91316925 70.87209991 -3.26661682 70.87110901 C-6.44775391 70.24291992 -6.44775391 70.24291992 -8.37982178 67.84222412 C-9.47340694 65.18048147 -9.74660063 63.6556194 -9.52197266 60.81713867 C-9.4671875 60.02114258 -9.41240234 59.22514648 -9.35595703 58.4050293 C-9.283125 57.5884082 -9.21029297 56.77178711 -9.13525391 55.93041992 C-9.07402344 55.09446289 -9.01279297 54.25850586 -8.94970703 53.3972168 C-8.79722902 51.34462816 -8.62449665 49.29356169 -8.44775391 47.24291992 C-7.59890625 46.84459961 -7.59890625 46.84459961 -6.73291016 46.43823242 C-5.99943359 46.0850293 -5.26595703 45.73182617 -4.51025391 45.36791992 C-3.41390625 44.84584961 -3.41390625 44.84584961 -2.29541016 44.31323242 C-0.28442932 43.37442222 -0.28442932 43.37442222 0.55224609 41.24291992 C1.21224609 41.24291992 1.87224609 41.24291992 2.55224609 41.24291992 C2.75875386 36.18347974 2.49384855 31.95824018 0.55224609 27.24291992 C-1.78108724 25.82625326 -1.78108724 25.82625326 -4.44775391 25.24291992 C-5.79064216 24.59571566 -7.12586059 23.93199197 -8.44775391 23.24291992 C-8.64236879 20.30573225 -8.82872984 17.36842061 -9.01025391 14.43041992 C-9.06632812 13.59704102 -9.12240234 12.76366211 -9.18017578 11.9050293 C-9.22851562 11.10258789 -9.27685547 10.30014648 -9.32666016 9.47338867 C-9.3737915 8.73499756 -9.42092285 7.99660645 -9.46948242 7.23583984 C-9.44775391 5.24291992 -9.44775391 5.24291992 -8.44775391 2.24291992 C-5.61095116 0.37931395 -3.35339151 -0.00624324 0 0 Z M17.55224609 24.24291992 C17.55224609 31.83291992 17.55224609 39.42291992 17.55224609 47.24291992 C25.14224609 47.24291992 32.73224609 47.24291992 40.55224609 47.24291992 C40.88224609 45.59291992 41.21224609 43.94291992 41.55224609 42.24291992 C40.36371754 40.82517154 40.36371754 40.82517154 36.95458984 41.14526367 C35.46627742 41.15193772 33.97798177 41.16389809 32.48974609 41.18041992 C31.73113281 41.18493164 30.97251953 41.18944336 30.19091797 41.1940918 C28.31132738 41.20591312 26.43177711 41.22384914 24.55224609 41.24291992 C24.55224609 37.94291992 24.55224609 34.64291992 24.55224609 31.24291992 C25.68404297 31.19393555 26.81583984 31.14495117 27.98193359 31.09448242 C29.46372948 31.01945478 30.94549909 30.94390695 32.42724609 30.86791992 C33.17361328 30.83698242 33.91998047 30.80604492 34.68896484 30.77416992 C39.08697797 30.68648161 39.08697797 30.68648161 42.55224609 28.24291992 C42.55224609 27.25291992 42.55224609 26.26291992 42.55224609 25.24291992 C39.9950138 23.96430377 38.18487507 24.12955383 35.32568359 24.14526367 C33.9322876 24.14901001 33.9322876 24.14901001 32.51074219 24.15283203 C31.32818848 24.16193604 30.14563477 24.17104004 28.92724609 24.18041992 C25.17349609 24.20104492 21.41974609 24.22166992 17.55224609 24.24291992 Z " fill="#D03340" transform="translate(73.44775390625,210.757080078125)"/>
<path d="M0 0 C4.33125 -0.12375 4.33125 -0.12375 8.75 -0.25 C9.65331055 -0.28641602 10.55662109 -0.32283203 11.48730469 -0.36035156 C15.26425997 -0.41269202 17.36472892 -0.43128495 20.5546875 1.734375 C22.16935301 4.26547228 22.48697681 5.52752474 22.375 8.5 C22.35566406 9.62921875 22.35566406 9.62921875 22.3359375 10.78125 C21.97100523 13.19150034 21.19824206 14.89109398 20 17 C20.66 17 21.32 17 22 17 C23.63727927 19.50407418 24.00195201 20.90825552 23.9375 23.9375 C22.76831519 27.75683706 21.0082696 29.43196498 18 32 C12.6251615 34.68741925 6.00925213 33 0 33 C0 22.11 0 11.22 0 0 Z M7 6 C7 7.98 7 9.96 7 12 C11.25731568 12.40749675 11.25731568 12.40749675 14.875 10.5 C15.24625 10.005 15.6175 9.51 16 9 C15.34 8.01 14.68 7.02 14 6 C10.41642759 5.74984127 10.41642759 5.74984127 7 6 Z M7 19 C7 21.31 7 23.62 7 26 C11.65052872 26.26932521 11.65052872 26.26932521 16 25 C16 23.35 16 21.7 16 20 C13.04335481 18.5216774 10.25770263 18.93967217 7 19 Z " fill="#71818E" transform="translate(163,229)"/>
<path d="M0 0 C2.31 0 4.62 0 7 0 C8.31626692 3.61973402 9 6.09567131 9 10 C9.66 10 10.32 10 11 10 C11.144375 8.906875 11.28875 7.81375 11.4375 6.6875 C12 3 12 3 13 0 C15.31 0 17.62 0 20 0 C20.99 2.97 21.98 5.94 23 9 C23.99 6.03 24.98 3.06 26 0 C28.31 0 30.62 0 33 0 C32.4047056 5.21559072 31.22375782 9.86285253 29.5 14.8125 C29.27441406 15.47958984 29.04882812 16.14667969 28.81640625 16.83398438 C27.97989631 19.28659192 27.16030928 21.67938143 26 24 C24.02 24 22.04 24 20 24 C18.68 21.03 17.36 18.06 16 15 C15.01 17.97 14.02 20.94 13 24 C11.02 24 9.04 24 7 24 C0 7.29949239 0 7.29949239 0 0 Z " fill="#6D7C87" transform="translate(413,238)"/>
<path d="M0 0 C1.26171875 2.1171875 1.26171875 2.1171875 2 4 C0.75 5.5625 0.75 5.5625 -1 7 C-2.875 6.75 -2.875 6.75 -5 6 C-8.36541324 5.1791675 -9.63997871 4.8799929 -13 6 C-12.67 6.99 -12.34 7.98 -12 9 C-9.54302966 10.14182251 -9.54302966 10.14182251 -6.625 11 C-0.1226689 13.05878557 -0.1226689 13.05878557 2 16 C2.546875 18.15625 2.546875 18.15625 2.75 20.5 C2.82734375 21.2734375 2.9046875 22.046875 2.984375 22.84375 C3 25 3 25 2 28 C1.34 28 0.68 28 0 28 C0 28.66 0 29.32 0 30 C-4.66349765 33.10899843 -9.54218012 32.74065276 -15 32 C-17.64746444 30.60069559 -18.96676698 29.2591478 -21 27 C-19.68 25.35 -18.36 23.7 -17 22 C-16.43796875 22.32742187 -15.8759375 22.65484375 -15.296875 22.9921875 C-12.73140036 24.11785494 -11.03157723 24.2068111 -8.25 24.125 C-7.05117188 24.09792969 -7.05117188 24.09792969 -5.828125 24.0703125 C-5.22484375 24.04710937 -4.6215625 24.02390625 -4 24 C-4 22.68 -4 21.36 -4 20 C-4.66386719 19.82984375 -5.32773437 19.6596875 -6.01171875 19.484375 C-11.14269378 18.07616579 -15.13937572 16.86062428 -19 13 C-20.3899408 10.2201184 -20.18488204 8.0813674 -20 5 C-19 2.625 -19 2.625 -18 1 C-17.34 1 -16.68 1 -16 1 C-16 0.34 -16 -0.32 -16 -1 C-10.15144956 -3.36430762 -5.57448922 -3.24705482 0 0 Z " fill="#697884" transform="translate(362,230)"/>
<path d="M0 0 C2.31 0 4.62 0 7 0 C7 3.3 7 6.6 7 10 C7.66 9.67 8.32 9.34 9 9 C13.13529566 8.53185332 15.24401774 8.47604112 18.7109375 10.87890625 C21.97905449 15.33492242 21.55919989 18.94203306 21.3125 24.3125 C21.28994141 25.24384766 21.26738281 26.17519531 21.24414062 27.13476562 C21.18542078 29.4248396 21.10336858 31.71157875 21 34 C18.69 34 16.38 34 14 34 C13.67 28.39 13.34 22.78 13 17 C11.68 16.67 10.36 16.34 9 16 C6.95649549 18.04350451 7.63104366 22.175281 7.5 25 C7.13513514 32.86486486 7.13513514 32.86486486 6 34 C4.02 34 2.04 34 0 34 C0 22.78 0 11.56 0 0 Z " fill="#596874" transform="translate(367,228)"/>
<path d="M0 0 C2.31 0 4.62 0 7 0 C7.33 4.62 7.66 9.24 8 14 C8.66 14 9.32 14 10 14 C10 13.34 10 12.68 10 12 C10.66 12 11.32 12 12 12 C12 11.34 12 10.68 12 10 C14.64 10 17.28 10 20 10 C20 10.99 20 11.98 20 13 C19.34 13 18.68 13 18 13 C17.566875 13.928125 17.566875 13.928125 17.125 14.875 C16 17 16 17 14 19 C14.34796926 22.47969264 16.07899349 24.82089387 18.0625 27.625 C21 31.78588235 21 31.78588235 21 34 C18.36 34 15.72 34 13 34 C12.0234375 32.20963542 11.046875 30.41927083 10.0703125 28.62890625 C9.08589976 26.83381685 9.08589976 26.83381685 7 26 C7 28.64 7 31.28 7 34 C5.00045254 34.04254356 2.99958364 34.04080783 1 34 C0 33 0 33 -0.11352539 29.85717773 C-0.11336633 28.46597303 -0.10767506 27.07476239 -0.09765625 25.68359375 C-0.0962413 24.95253922 -0.09482635 24.22148468 -0.09336853 23.46827698 C-0.08775408 21.12464368 -0.07519922 18.78110461 -0.0625 16.4375 C-0.05748686 14.85221492 -0.05292363 13.26692834 -0.04882812 11.68164062 C-0.03777997 7.7877239 -0.02050572 3.89387795 0 0 Z " fill="#687985" transform="translate(238,228)"/>
<path d="M0 0 C3.73738736 1.66106105 5.85257708 3.54597609 8 7 C8.742137 11.88209732 8.63802498 16.51127506 6.6875 21.0625 C4.45989209 23.62012389 2.82297703 24.91571922 -0.59375 25.265625 C-1.5528125 25.26046875 -2.511875 25.2553125 -3.5 25.25 C-4.93859375 25.25773437 -4.93859375 25.25773437 -6.40625 25.265625 C-9 25 -9 25 -12 23 C-12 22.34 -12 21.68 -12 21 C-12.66 21 -13.32 21 -14 21 C-16.08425003 16.09588229 -16.59347738 12.07290584 -15 7 C-11.13114041 0.73677626 -7.21698079 -0.77721332 0 0 Z M-4 6 C-6.666508 8.16588845 -6.666508 8.16588845 -9 11 C-9 14.01797697 -8.40388951 15.42301498 -6.6875 17.875 C-5.04943551 19.22206743 -5.04943551 19.22206743 -2.9375 18.8125 C-0.81287474 18.06529664 -0.81287474 18.06529664 1 16 C1.58342353 12.54230809 1.58342353 12.54230809 1 9 C-1.3726974 6.99135641 -1.3726974 6.99135641 -4 6 Z " fill="#697987" transform="translate(405,237)"/>
<path d="M0 0 C2.6875 1.6875 2.6875 1.6875 4.6875 4.6875 C6.02002346 15.31963457 6.02002346 15.31963457 3.6015625 19.6171875 C2.25 20.9375 2.25 20.9375 -0.3125 22.6875 C-0.6425 23.0175 -0.9725 23.3475 -1.3125 23.6875 C-6.7778588 24.32940456 -10.95454863 24.71954304 -15.4375 21.3125 C-18.88339642 16.48824501 -18.81744676 12.50815898 -18.3125 6.6875 C-15.02246513 -1.4510073 -7.80623549 -3.0930367 0 0 Z M-7.3125 4.6875 C-10.14040258 6.98517085 -11.22528296 8.07698075 -11.75 11.75 C-11.52423377 14.65166338 -11.52423377 14.65166338 -10.0625 16.625 C-8.35525217 17.90826342 -8.35525217 17.90826342 -6.25 17.4375 C-4.27466216 16.70782032 -4.27466216 16.70782032 -2.3125 15.6875 C-1.96118798 11.65547664 -1.96118798 11.65547664 -2.3125 7.6875 C-4.6674963 5.60533124 -4.6674963 5.60533124 -7.3125 4.6875 Z " fill="#748390" transform="translate(231.3125,238.3125)"/>
<path d="M0 0 C2.90581509 1.89215866 3.49066486 2.60014751 4.6875 5.75 C5.9688857 15.55597268 5.9688857 15.55597268 3.6015625 19.609375 C2.25 20.9375 2.25 20.9375 -0.3125 22.75 C-0.6425 23.08 -0.9725 23.41 -1.3125 23.75 C-6.50518572 24.28146616 -10.89047489 24.60321507 -15.4375 21.875 C-19.04832032 17.78273697 -18.69976373 14.04313712 -18.66796875 8.74609375 C-18.13360735 4.24219055 -16.70992967 2.67336972 -13.3125 -0.25 C-8.5368207 -1.8418931 -4.71863679 -1.78061766 0 0 Z M-11.3125 7.75 C-12.3204855 10.55795961 -12.48621915 12.12461105 -11.6875 15 C-10.38978872 16.95909958 -10.38978872 16.95909958 -7.875 17.6875 C-5.34164811 17.96478802 -5.34164811 17.96478802 -3.5 16.75 C-1.67353202 13.6738434 -1.93793825 11.24590968 -2.3125 7.75 C-3.54336042 5.7653062 -3.54336042 5.7653062 -5.3125 4.75 C-8.18954681 4.75 -9.23767161 5.80903151 -11.3125 7.75 Z " fill="#64727D" transform="translate(296.3125,238.25)"/>
<path d="M0 0 C2.125 1.6875 2.125 1.6875 4.125 4.6875 C4.4609375 7.6484375 4.4609375 7.6484375 4.5 11.0625 C4.52835938 12.18398437 4.55671875 13.30546875 4.5859375 14.4609375 C4.03429072 18.32246496 2.82353414 19.92877551 0.125 22.6875 C-3.9023829 24.70119145 -8.51710896 24.41075055 -12.875 23.6875 C-15.91666985 21.89828244 -17.46359241 19.90459504 -18.875 16.6875 C-19.89961596 11.56442019 -19.46065359 7.85880718 -17.125 3.1875 C-12.38977522 -2.07386087 -6.44403689 -2.94184293 0 0 Z M-10 6.3125 C-12.12316594 8.59293162 -12.12316594 8.59293162 -12.3125 11.75 C-12.0778665 14.64008731 -12.0778665 14.64008731 -10.6875 16.625 C-8.85586328 17.92080193 -8.85586328 17.92080193 -6.3125 17.5625 C-3.5488389 16.84360832 -3.5488389 16.84360832 -1.875 13.6875 C-1.37485047 11.23008463 -1.37485047 11.23008463 -1.875 8.6875 C-3.6462618 6.33227775 -3.6462618 6.33227775 -5.875 4.6875 C-8.05606686 4.48501663 -8.05606686 4.48501663 -10 6.3125 Z " fill="#6E7E8B" transform="translate(206.875,238.3125)"/>
<path d="M0 0 C2.64 0 5.28 0 8 0 C9.65 3.3 11.3 6.6 13 10 C13.4125 9.278125 13.825 8.55625 14.25 7.8125 C18.91072697 0.32204594 18.91072697 0.32204594 22.24609375 -0.6640625 C24.4375 -0.625 24.4375 -0.625 28 0 C26.89835882 2.23044611 25.79378106 4.45935646 24.6875 6.6875 C24.37876953 7.31333984 24.07003906 7.93917969 23.75195312 8.58398438 C22.3875381 11.32717669 21.02836077 13.95798405 19.3125 16.5 C17.57471299 19.81007049 17.4861797 22.5957544 17.3125 26.3125 C17.24675781 27.56675781 17.18101562 28.82101562 17.11328125 30.11328125 C17.07589844 31.06589844 17.03851563 32.01851563 17 33 C14.69 33 12.38 33 10 33 C10.03222656 32.175 10.06445312 31.35 10.09765625 30.5 C9.9979678 20.57546088 7.11049254 14.56720339 1.93359375 6.30078125 C0 3 0 3 0 0 Z " fill="#707F8C" transform="translate(256,229)"/>
<path d="M0 0 C2.31 0 4.62 0 7 0 C7 5.61 7 11.22 7 17 C8.65 17 10.3 17 12 17 C14.05922402 14.94077598 13.41427579 10.78291876 13.5625 7.9375 C13.60568359 7.17888672 13.64886719 6.42027344 13.69335938 5.63867188 C13.79973633 3.75934562 13.90039934 1.87969756 14 0 C16.31 0 18.62 0 21 0 C21 7.92 21 15.84 21 24 C18.2775 24.103125 15.555 24.20625 12.75 24.3125 C11.89889648 24.35802002 11.04779297 24.40354004 10.17089844 24.45043945 C6.3958436 24.51973523 4.55465699 24.41770464 1.46875 22.09375 C-0.60581473 17.72392217 -0.43488798 13.95547656 -0.25 9.1875 C-0.23195313 8.30384766 -0.21390625 7.42019531 -0.1953125 6.50976562 C-0.14838513 4.33937457 -0.07664731 2.16954481 0 0 Z " fill="#4D5962" transform="translate(303,238)"/>
<path d="M0 0 C2.08218362 -0.10832169 4.16599129 -0.18573541 6.25 -0.25 C7.99023438 -0.31960937 7.99023438 -0.31960937 9.765625 -0.390625 C13 0 13 0 15.3984375 1.734375 C17.19736826 4.27920388 17.49080007 5.42603463 17.375 8.5 C17.35566406 9.62921875 17.35566406 9.62921875 17.3359375 10.78125 C16.97100523 13.19150034 16.19824206 14.89109398 15 17 C15.66 17 16.32 17 17 17 C18.70401547 19.60614131 19.00613718 20.89975932 18.8125 24.0625 C17.9940468 27.02152312 17.37339853 28.14255768 15 30 C15.33 28.35 15.66 26.7 16 25 C14.68 25 13.36 25 12 25 C11.34 25.66 10.68 26.32 10 27 C7.8359375 27.1953125 7.8359375 27.1953125 5.375 27.125 C4.55773437 27.10695313 3.74046875 27.08890625 2.8984375 27.0703125 C2.27195313 27.04710937 1.64546875 27.02390625 1 27 C0.9727585 25.58344207 0.95349533 24.16672955 0.9375 22.75 C0.92589844 21.96109375 0.91429687 21.1721875 0.90234375 20.359375 C0.99614694 18.09308998 1.36758937 16.1711105 2 14 C5.465 13.505 5.465 13.505 9 13 C6.36 13 3.72 13 1 13 C1.03255208 11.07942708 1.06510417 9.15885417 1.09765625 7.23828125 C0.98887774 4.74507785 0.54111139 2.43287087 0 0 Z M2 6 C2 7.98 2 9.96 2 12 C6.25731568 12.40749675 6.25731568 12.40749675 9.875 10.5 C10.24625 10.005 10.6175 9.51 11 9 C10.34 8.01 9.68 7.02 9 6 C5.41642759 5.74984127 5.41642759 5.74984127 2 6 Z M2 19 C2 21.31 2 23.62 2 26 C6.65052872 26.26932521 6.65052872 26.26932521 11 25 C11 23.35 11 21.7 11 20 C8.04335481 18.5216774 5.25770263 18.93967217 2 19 Z " fill="#657480" transform="translate(168,229)"/>
<path d="M0 0 C0 2.31 0 4.62 0 7 C-0.97195313 7.33644531 -1.94390625 7.67289063 -2.9453125 8.01953125 C-6.37908724 9.74024145 -6.37908724 9.74024145 -6.8046875 13.57421875 C-6.85764484 14.94448986 -6.88012151 16.31621551 -6.875 17.6875 C-6.895625 18.38939453 -6.91625 19.09128906 -6.9375 19.81445312 C-6.98452045 21.54245468 -6.99574751 23.27136406 -7 25 C-9.31 25 -11.62 25 -14 25 C-14 17.08 -14 9.16 -14 1 C-11.36 1 -8.72 1 -6 1 C-4 0 -4 0 0 0 Z " fill="#515E69" transform="translate(340,237)"/>
<path d="M0 0 C2.31 0 4.62 0 7 0 C7.33 4.62 7.66 9.24 8 14 C8.66 14 9.32 14 10 14 C10 13.34 10 12.68 10 12 C10.66 12 11.32 12 12 12 C12 11.34 12 10.68 12 10 C14.64 10 17.28 10 20 10 C20 10.99 20 11.98 20 13 C19.34 13 18.68 13 18 13 C17.34 14.32 16.68 15.64 16 17 C15.34 16.67 14.68 16.34 14 16 C10.47105052 16.08743691 10.47105052 16.08743691 7 17 C5.48705712 18.93597032 5.48705712 18.93597032 5 21 C4.01 21 3.02 21 2 21 C1.67 24.96 1.34 28.92 1 33 C0.67 33 0.34 33 0 33 C0 22.11 0 11.22 0 0 Z " fill="#63707D" transform="translate(238,228)"/>
<path d="M0 0 C8.91 0 17.82 0 27 0 C27 2.64 27 5.28 27 8 C21.06 8 15.12 8 9 8 C9 10.64 9 13.28 9 16 C13.95 16 18.9 16 24 16 C24 16.66 24 17.32 24 18 C24.99 18 25.98 18 27 18 C27 19.98 27 21.96 27 24 C24.3178719 25.34106405 22.11601968 25.21450419 19.1171875 25.31640625 C17.54106689 25.37356812 17.54106689 25.37356812 15.93310547 25.43188477 C13.92434326 25.49653931 13.92434326 25.49653931 11.875 25.5625 C7.62625 25.706875 3.3775 25.85125 -1 26 C-0.67 17.42 -0.34 8.84 0 0 Z M1 1 C1 8.59 1 16.18 1 24 C8.59 24 16.18 24 24 24 C24.33 22.35 24.66 20.7 25 19 C23.81147145 17.58225162 23.81147145 17.58225162 20.40234375 17.90234375 C18.91403133 17.9090178 17.42573568 17.92097817 15.9375 17.9375 C15.17888672 17.94201172 14.42027344 17.94652344 13.63867188 17.95117188 C11.75908129 17.9629932 9.87953101 17.98092922 8 18 C8 14.7 8 11.4 8 8 C9.13179687 7.95101562 10.26359375 7.90203125 11.4296875 7.8515625 C12.91148339 7.77653486 14.393253 7.70098703 15.875 7.625 C16.62136719 7.5940625 17.36773437 7.563125 18.13671875 7.53125 C22.53473188 7.44356169 22.53473188 7.44356169 26 5 C26 4.01 26 3.02 26 2 C23.44276771 0.72138385 21.63262898 0.88663391 18.7734375 0.90234375 C17.3800415 0.90609009 17.3800415 0.90609009 15.95849609 0.90991211 C14.77594238 0.91901611 13.59338867 0.92812012 12.375 0.9375 C8.62125 0.958125 4.8675 0.97875 1 1 Z " fill="#762530" transform="translate(90,234)"/>
<path d="M0 0 C2.31 0 4.62 0 7 0 C7 7.92 7 15.84 7 24 C5.02 24 3.04 24 1 24 C0.67 23.34 0.34 22.68 0 22 C-0.66 21.67 -1.32 21.34 -2 21 C-1.84660156 20.34644531 -1.69320313 19.69289063 -1.53515625 19.01953125 C-0.86620406 15.24507841 -0.64592703 11.51094004 -0.4375 7.6875 C-0.39431641 6.94693359 -0.35113281 6.20636719 -0.30664062 5.44335938 C-0.20129568 3.62908536 -0.10021684 1.8145645 0 0 Z " fill="#6D7C89" transform="translate(317,238)"/>
<path d="M0 0 C2.31 0 4.62 0 7 0 C7.33 3.63 7.66 7.26 8 11 C7.34 11 6.68 11 6 11 C6 7.7 6 4.4 6 1 C4.35 1 2.7 1 1 1 C1.33 5.62 1.66 10.24 2 15 C3.65 14.67 5.3 14.34 7 14 C7.66 14.66 8.32 15.32 9 16 C8.67 16.33 8.34 16.66 8 17 C7.78916247 19.67060873 7.62408803 22.3252135 7.5 25 C7.13513514 32.86486486 7.13513514 32.86486486 6 34 C4.02 34 2.04 34 0 34 C0 22.78 0 11.56 0 0 Z " fill="#64727C" transform="translate(367,228)"/>
<path d="M0 0 C5.24142864 -0.54958669 8.76939497 -0.91064772 13.125 2.3125 C16.12693454 6.68373801 15.40516667 11.93991844 15 17 C12.69 17 10.38 17 8 17 C7.99742187 16.38511719 7.99484375 15.77023438 7.9921875 15.13671875 C7.87228926 12.63084557 7.68327656 10.41741516 7 8 C4.06644453 6.19970518 4.06644453 6.19970518 1 5 C0.125 2.3125 0.125 2.3125 0 0 Z " fill="#768996" transform="translate(398,238)"/>
<path d="M0 0 C1.32 0.33 2.64 0.66 4 1 C4 1.66 4 2.32 4 3 C4.66 3 5.32 3 6 3 C6.28904211 7.26337114 6.39824436 10.04421353 4.75 14 C0.2741428 17.25516888 -4.64869894 16.37862979 -10 16 C-10.66 14.35 -11.32 12.7 -12 11 C-8.7 10.34 -5.4 9.68 -2 9 C-1.34 6.03 -0.68 3.06 0 0 Z " fill="#6D7C88" transform="translate(205,245)"/>
<path d="M0 0 C2.97 0.495 2.97 0.495 6 1 C5.67 4.96 5.34 8.92 5 13 C6.258125 13 7.51625 13 8.8125 13 C11.20833333 13 13.60416667 13 16 13 C15.34 14.65 14.68 16.3 14 18 C4.85833915 18.62805304 4.85833915 18.62805304 1.4375 16.125 C-0.79766265 12.82084652 -1.13653193 10.96698249 -1.125 7 C-1.12757813 6.113125 -1.13015625 5.22625 -1.1328125 4.3125 C-1 2 -1 2 0 0 Z " fill="#768694" transform="translate(214,243)"/>
<path d="M0 0 C1.66666667 0 3.33333333 0 5 0 C5.7613769 9.66102684 5.7613769 9.66102684 3.1875 14.1875 C-1.4792928 16.84116649 -5.7519998 16.41359021 -11 16 C-11 14.68 -11 13.36 -11 12 C-10.01 11.34 -9.02 10.68 -8 10 C-8 10.66 -8 11.32 -8 12 C-6.68 11.67 -5.36 11.34 -4 11 C-4 10.34 -4 9.68 -4 9 C-3.34 9 -2.68 9 -2 9 C-1.34 6.03 -0.68 3.06 0 0 Z " fill="#6B7C89" transform="translate(295,246)"/>
<path d="M0 0 C2.31 0 4.62 0 7 0 C8.97680763 4.94201908 9.43020546 8.75149341 9 14 C7.5 16 7.5 16 6 17 C5.34 16.67 4.68 16.34 4 16 C4 15.01 4 14.02 4 13 C3.01 13.33 2.02 13.66 1 14 C-1 12 -1 12 -1.23046875 9.94140625 C-1.21628906 9.15636719 -1.20210938 8.37132812 -1.1875 7.5625 C-1.18105469 6.78003906 -1.17460937 5.99757812 -1.16796875 5.19140625 C-1 3 -1 3 0 0 Z " fill="#73828F" transform="translate(426,238)"/>
<path d="M0 0 C1.73726636 2.73155088 2.01504356 3.75428859 1.8125 7.0625 C0.9940468 10.02152312 0.37339853 11.14255768 -2 13 C-1.67 11.35 -1.34 9.7 -1 8 C-2.32 8 -3.64 8 -5 8 C-5.66 8.66 -6.32 9.32 -7 10 C-9.1640625 10.1953125 -9.1640625 10.1953125 -11.625 10.125 C-12.44226563 10.10695313 -13.25953125 10.08890625 -14.1015625 10.0703125 C-14.72804687 10.04710937 -15.35453125 10.02390625 -16 10 C-16.0272415 8.58344207 -16.04650467 7.16672955 -16.0625 5.75 C-16.07410156 4.96109375 -16.08570313 4.1721875 -16.09765625 3.359375 C-16.00385306 1.09308998 -15.63241063 -0.8288895 -15 -3 C-9.07182653 -4.48204337 -4.94337694 -3.78424027 0 0 Z M-15 2 C-15 4.31 -15 6.62 -15 9 C-10.34947128 9.26932521 -10.34947128 9.26932521 -6 8 C-6 6.35 -6 4.7 -6 3 C-8.95664519 1.5216774 -11.74229737 1.93967217 -15 2 Z " fill="#53606C" transform="translate(185,246)"/>
<path d="M0 0 C1.65 0 3.3 0 5 0 C5 3.3 5 6.6 5 10 C5.66 9.67 6.32 9.34 7 9 C9.3329866 8.95977609 11.66706666 8.95679753 14 9 C14 10.32 14 11.64 14 13 C14.33 13.66 14.66 14.32 15 15 C14.22914063 14.91621094 13.45828125 14.83242187 12.6640625 14.74609375 C11.66117187 14.64425781 10.65828125 14.54242188 9.625 14.4375 C8.62726563 14.33308594 7.62953125 14.22867188 6.6015625 14.12109375 C4.015963 13.78855292 4.015963 13.78855292 2 15 C1.67 20.61 1.34 26.22 1 32 C0.67 32 0.34 32 0 32 C0 21.44 0 10.88 0 0 Z " fill="#7A8A97" transform="translate(368,229)"/>
<path d="M0 0 C2.2109375 0.00390625 2.2109375 0.00390625 5.9609375 0.37890625 C3.6509375 4.99890625 1.3409375 9.61890625 -1.0390625 14.37890625 C-4.0390625 13.37890625 -4.0390625 13.37890625 -6.0390625 11.37890625 C-6.6990625 11.37890625 -7.3590625 11.37890625 -8.0390625 11.37890625 C-4.30534325 0.80003505 -4.30534325 0.80003505 0 0 Z " fill="#687883" transform="translate(278.0390625,228.62109375)"/>
<path d="M0 0 C2.31 0 4.62 0 7 0 C8.31626692 3.61973402 9 6.09567131 9 10 C9.66 10 10.32 10 11 10 C11.33 8.68 11.66 7.36 12 6 C12.103125 6.78375 12.20625 7.5675 12.3125 8.375 C12.77595022 11.33045181 12.77595022 11.33045181 16 13 C15.67 14.98 15.34 16.96 15 19 C13 15.25 13 15.25 13 13 C11.68 13 10.36 13 9 13 C9 12.34 9 11.68 9 11 C8.34 11 7.68 11 7 11 C6.67 10.34 6.34 9.68 6 9 C4.68 9.33 3.36 9.66 2 10 C0.68373308 6.38026598 0 3.90432869 0 0 Z " fill="#546470" transform="translate(413,238)"/>
<path d="M0 0 C0.66 0.33 1.32 0.66 2 1 C2.02895976 4.12498063 2.04678483 7.2499269 2.0625 10.375 C2.07087891 11.26445312 2.07925781 12.15390625 2.08789062 13.0703125 C2.09111328 13.92109375 2.09433594 14.771875 2.09765625 15.6484375 C2.10289307 16.43395996 2.10812988 17.21948242 2.11352539 18.02880859 C2 20 2 20 1 22 C8.59 21.67 16.18 21.34 24 21 C24 19.35 24 17.7 24 16 C24.99 16 25.98 16 27 16 C27 17.98 27 19.96 27 22 C24.3178719 23.34106405 22.11601968 23.21450419 19.1171875 23.31640625 C17.95058594 23.35830078 16.78398438 23.40019531 15.58203125 23.44335938 C14.35871094 23.48267578 13.13539062 23.52199219 11.875 23.5625 C10.64394531 23.60568359 9.41289063 23.64886719 8.14453125 23.69335938 C5.09649488 23.79968623 2.04826261 23.90036972 -1 24 C-0.67 16.08 -0.34 8.16 0 0 Z " fill="#962D39" transform="translate(90,236)"/>
<path d="M0 0 C0.33 0 0.66 0 1 0 C1.33 2.64 1.66 5.28 2 8 C5.04386724 8.08226668 7.07175348 7.97608217 10 7 C10 4.69 10 2.38 10 0 C10.66 0.66 11.32 1.32 12 2 C12.99 1.67 13.98 1.34 15 1 C15.04254356 2.99954746 15.04080783 5.00041636 15 7 C14.67 7.33 14.34 7.66 14 8 C14.66 8.66 15.32 9.32 16 10 C14.34116421 12.28804937 13.37716693 13.56463437 11 15 C7.29701335 15.44207004 3.71168123 15.29251428 0 15 C0 14.67 0 14.34 0 14 C4.455 13.505 4.455 13.505 9 13 C9.33 11.68 9.66 10.36 10 9 C9.01 9.495 9.01 9.495 8 10 C2.46153846 10.23076923 2.46153846 10.23076923 0 9 C0 6.03 0 3.06 0 0 Z " fill="#596673" transform="translate(219,247)"/>
<path d="M0 0 C0 0.33 0 0.66 0 1 C-1.98 1.33 -3.96 1.66 -6 2 C-6 3.32 -6 4.64 -6 6 C-5.34 6.33 -4.68 6.66 -4 7 C-4.928125 7.8971875 -4.928125 7.8971875 -5.875 8.8125 C-8.13676954 11.00811144 -8.13676954 11.00811144 -10 14 C-10 13.01 -10 12.02 -10 11 C-10.99 10.67 -11.98 10.34 -13 10 C-13.33 11.65 -13.66 13.3 -14 15 C-14.66 15 -15.32 15 -16 15 C-15.66344834 8.49333455 -14.62130425 5.62130425 -10 1 C-6.78548731 -0.60725635 -3.56387464 -0.05748185 0 0 Z " fill="#63717E" transform="translate(405,237)"/>
<path d="M0 0 C0.7425 0.433125 0.7425 0.433125 1.5 0.875 C4.91752035 2.41288416 8.3506202 3.14847805 12 4 C11.67 5.65 11.34 7.3 11 9 C2.22421525 9.76681614 2.22421525 9.76681614 -0.77734375 7.88671875 C-2.125 6.5 -2.125 6.5 -4 4 C-2.68 2.68 -1.36 1.36 0 0 Z " fill="#6C7B86" transform="translate(345,252)"/>
<path d="M0 0 C0.99 0.33 1.98 0.66 3 1 C2.773125 1.598125 2.54625 2.19625 2.3125 2.8125 C2.209375 3.534375 2.10625 4.25625 2 5 C2.4846875 5.391875 2.969375 5.78375 3.46875 6.1875 C5.85247723 9.00905468 5.28675583 11.58120466 5.1875 15.1875 C5.16042969 16.45980469 5.13335937 17.73210937 5.10546875 19.04296875 C5.07066406 20.01878906 5.03585937 20.99460937 5 22 C3.35 22 1.7 22 0 22 C0 14.74 0 7.48 0 0 Z " fill="#7D8C99" transform="translate(327,239)"/>
<path d="M0 0 C1.65 0 3.3 0 5 0 C5.05383848 2.45862401 5.09359038 4.9160755 5.125 7.375 C5.14175781 8.07367188 5.15851563 8.77234375 5.17578125 9.4921875 C5.19344267 11.32897486 5.10303261 13.16601963 5 15 C4.34 15.66 3.68 16.32 3 17 C2.67 17.66 2.34 18.32 2 19 C1.34 19 0.68 19 0 19 C0 12.73 0 6.46 0 0 Z " fill="#7D8D9A" transform="translate(304,239)"/>
<path d="M0 0 C0.33 0 0.66 0 1 0 C1.33 4.62 1.66 9.24 2 14 C2.66 14 3.32 14 4 14 C4 13.34 4 12.68 4 12 C4.66 12 5.32 12 6 12 C6 11.34 6 10.68 6 10 C8.64 10 11.28 10 14 10 C14 10.99 14 11.98 14 13 C13.34 13 12.68 13 12 13 C11.34 14.32 10.68 15.64 10 17 C9.34 16.67 8.68 16.34 8 16 C5.36 16.66 2.72 17.32 0 18 C0 12.06 0 6.12 0 0 Z " fill="#4B5864" transform="translate(244,228)"/>
<path d="M0 0 C4.29 0 8.58 0 13 0 C12 4 12 4 11 5 C11 5.33 11 5.66 11 6 C8.03 6 5.06 6 2 6 C2 7.98 2 9.96 2 12 C3.98 12 5.96 12 8 12 C8 12.33 8 12.66 8 13 C5.69 13 3.38 13 1 13 C1.03255208 11.07942708 1.06510417 9.15885417 1.09765625 7.23828125 C1.03618697 4.51712168 1.03618697 4.51712168 0 0 Z " fill="#64727D" transform="translate(168,229)"/>
<path d="M0 0 C3.37014328 2.20802491 5.16247623 4.41682865 7 8 C7 8.66 7 9.32 7 10 C6.34 10 5.68 10 5 10 C5 11.98 5 13.96 5 16 C4.01 15.67 3.02 15.34 2 15 C2 14.34 2 13.68 2 13 C1.34 13 0.68 13 0 13 C-1.0161692 8.37078475 -0.83796731 4.65537393 0 0 Z " fill="#65727C" transform="translate(391,245)"/>
<path d="M0 0 C4 4.75 4 4.75 4 7 C5.65 7.33 7.3 7.66 9 8 C5.25 10 5.25 10 3 10 C1.65117592 10.63474075 0.3153341 11.29848848 -1 12 C-2.5625 10.375 -2.5625 10.375 -4 8 C-3.875 4.875 -3.875 4.875 -3 2 C-2.01 1.34 -1.02 0.68 0 0 Z " fill="#61717C" transform="translate(282,248)"/>
<path d="M0 0 C0.33 0.66 0.66 1.32 1 2 C1.99 1.67 2.98 1.34 4 1 C5.65 2.65 7.3 4.3 9 6 C7.02 6.99 7.02 6.99 5 8 C5.33 8.99 5.66 9.98 6 11 C9.3 11 12.6 11 16 11 C16 11.33 16 11.66 16 12 C6.60123174 13.05359858 6.60123174 13.05359858 2.8984375 10.6171875 C0.24992026 7.71762597 -1.0452226 6.06273103 -0.875 2.0625 C-0.58625 1.381875 -0.2975 0.70125 0 0 Z " fill="#5F6C78" transform="translate(189,250)"/>
<path d="M0 0 C1.66611905 -0.042721 3.33382885 -0.04063832 5 0 C6 1 6 1 6.09765625 3.94140625 C6.08605469 5.13636719 6.07445312 6.33132812 6.0625 7.5625 C6.05347656 8.76003906 6.04445312 9.95757812 6.03515625 11.19140625 C6.02355469 12.11824219 6.01195312 13.04507813 6 14 C4.68 13.67 3.36 13.34 2 13 C2.33 12.67 2.66 12.34 3 12 C3.04063832 10.33382885 3.042721 8.66611905 3 7 C2.34 7 1.68 7 1 7 C0.67 8.32 0.34 9.64 0 11 C-1.125 3.375 -1.125 3.375 0 0 Z " fill="#707E8A" transform="translate(230,242)"/>
<path d="M0 0 C2.39740646 3.59610969 2.23987692 5.30092327 2.1875 9.5625 C2.18105469 10.71878906 2.17460937 11.87507812 2.16796875 13.06640625 C2 16 2 16 1 18 C-0.65 18 -2.3 18 -4 18 C-4 13.05 -4 8.1 -4 3 C-3.01 3.495 -3.01 3.495 -2 4 C-2.33 7.3 -2.66 10.6 -3 14 C-2.34 14 -1.68 14 -1 14 C-0.67 9.38 -0.34 4.76 0 0 Z " fill="#84929E" transform="translate(386,243)"/>
<path d="M0 0 C3.27078876 0.5639291 4.86371562 1.45680431 7 4 C8.38226016 6.76452033 8.09525387 9.0461363 8.0625 12.125 C8.05347656 13.22070312 8.04445313 14.31640625 8.03515625 15.4453125 C8.02355469 16.28835937 8.01195312 17.13140625 8 18 C7.67 18 7.34 18 7 18 C7 14.7 7 11.4 7 8 C2.76421208 10.10390941 2.76421208 10.10390941 1 14 C0.22827355 9.62688345 0.01360777 6.31546601 1 2 C0.67 1.34 0.34 0.68 0 0 Z " fill="#586770" transform="translate(293,238)"/>
<path d="M0 0 C2.97 0.495 2.97 0.495 6 1 C5.88610125 2.79240663 5.75852313 4.58394835 5.625 6.375 C5.55539063 7.37273437 5.48578125 8.37046875 5.4140625 9.3984375 C5 12 5 12 3 14 C0.19954377 10.85408067 -0.35261589 8.932936 -0.1875 4.75 C-0.16042969 3.85796875 -0.13335937 2.9659375 -0.10546875 2.046875 C-0.07066406 1.37140625 -0.03585938 0.6959375 0 0 Z " fill="#788B9A" transform="translate(214,243)"/>
<path d="M0 0 C0.33 0 0.66 0 1 0 C1.33 1.98 1.66 3.96 2 6 C0.68 6.33 -0.64 6.66 -2 7 C-1.34 4.69 -0.68 2.38 0 0 Z M-5 7 C-4.01 7 -3.02 7 -2 7 C-2 7.66 -2 8.32 -2 9 C-1.071875 9.2165625 -1.071875 9.2165625 -0.125 9.4375 C2 10 2 10 4 11 C3.67 12.32 3.34 13.64 3 15 C1.02 15 -0.96 15 -3 15 C-5 9.25 -5 9.25 -5 7 Z " fill="#5C6A77" transform="translate(436,247)"/>
<path d="M0 0 C1.58512383 3.17024765 1.42372144 6.54667028 1 10 C-0.5 12 -0.5 12 -2 13 C-2.66 12.67 -3.32 12.34 -4 12 C-4.40729228 9.67843403 -4.74438677 7.3431213 -5 5 C-4.67 5.66 -4.34 6.32 -4 7 C-3.34 7 -2.68 7 -2 7 C-2.7425 6.071875 -2.7425 6.071875 -3.5 5.125 C-5 3 -5 3 -5 1 C-3 0 -3 0 0 0 Z " fill="#697A85" transform="translate(434,242)"/>
<path d="M0 0 C1.32 0 2.64 0 4 0 C4 0.99 4 1.98 4 3 C4.66 3 5.32 3 6 3 C6 3.66 6 4.32 6 5 C7.32 5 8.64 5 10 5 C11.35439668 7.70879335 11.06501451 10.00933268 11 13 C10.21625 12.505 9.4325 12.01 8.625 11.5 C6.21447673 9.83462035 6.21447673 9.83462035 4 10 C1.125 3.375 1.125 3.375 0 0 Z " fill="#758693" transform="translate(416,246)"/>
<path d="M0 0 C2.66753731 0.36793618 3.81998328 0.81998328 5.75 2.75 C7.21079991 5.37943983 7.24687966 7.0374441 7 10 C6.34 10 5.68 10 5 10 C5 9.34 5 8.68 5 8 C3.35 8.33 1.7 8.66 0 9 C-0.33 8.01 -0.66 7.02 -1 6 C-1.66 5.67 -2.32 5.34 -3 5 C-2.34 4.67 -1.68 4.34 -1 4 C-0.34786708 1.97536745 -0.34786708 1.97536745 0 0 Z " fill="#637480" transform="translate(204,238)"/>
<path d="M0 0 C0.66 0.33 1.32 0.66 2 1 C0.68 1.33 -0.64 1.66 -2 2 C-1.67 4.64 -1.34 7.28 -1 10 C-0.01 10.33 0.98 10.66 2 11 C1.67 11.66 1.34 12.32 1 13 C0.34 13 -0.32 13 -1 13 C-1.08004482 16.5219721 -1.04005702 19.61981469 0 23 C-0.99 22.67 -1.98 22.34 -3 22 C-4.19600901 17.50832172 -3.9185704 13.26730207 -3.5625 8.6875 C-3.51029297 7.94693359 -3.45808594 7.20636719 -3.40429688 6.44335938 C-3.27549848 4.62847291 -3.13856738 2.81416675 -3 1 C-2.01 0.67 -1.02 0.34 0 0 Z " fill="#A93540" transform="translate(68,257)"/>
<path d="M0 0 C1.70401547 2.60614131 2.00613718 3.89975932 1.8125 7.0625 C0.9940468 10.02152312 0.37339853 11.14255768 -2 13 C-1.67 11.35 -1.34 9.7 -1 8 C-2.32 8 -3.64 8 -5 8 C-5.33 8 -5.66 8 -6 8 C-6.25 5.6875 -6.25 5.6875 -6 3 C-3.95575462 1.02389614 -2.8823175 0 0 0 Z " fill="#667684" transform="translate(185,246)"/>
<path d="M0 0 C5.26053037 -0.31563182 8.44573816 0.33409063 13 3 C13 3.66 13 4.32 13 5 C11.68 5 10.36 5 9 5 C8.67 6.32 8.34 7.64 8 9 C6.68 8.01 5.36 7.02 4 6 C4.66 6 5.32 6 6 6 C5.67 4.68 5.34 3.36 5 2 C3.35 2 1.7 2 0 2 C0 1.34 0 0.68 0 0 Z " fill="#64727C" transform="translate(221,237)"/>
<path d="M0 0 C2.23165204 4.18434758 2 7.27161921 2 12 C1.01 11.01 0.02 10.02 -1 9 C-2.11785113 11.11785113 -2.11785113 11.11785113 -3 14 C-4.18306728 11.63386544 -4.13354608 10.13219264 -4.125 7.5 C-4.12757813 6.7059375 -4.13015625 5.911875 -4.1328125 5.09375 C-4 3 -4 3 -3 1 C-2.01 0.67 -1.02 0.34 0 0 Z " fill="#768694" transform="translate(282,241)"/>
<path d="M0 0 C0.33 0.66 0.66 1.32 1 2 C1.5775 1.649375 2.155 1.29875 2.75 0.9375 C5.35801776 -0.14917407 6.39417629 0.06934867 9 1 C8.67 2.32 8.34 3.64 8 5 C4.37 5 0.74 5 -3 5 C-1 1 -1 1 0 0 Z " fill="#7B8B99" transform="translate(286,256)"/>
<path d="M0 0 C2.31 0.66 4.62 1.32 7 2 C6.1875 4.4375 6.1875 4.4375 5 7 C1.86650268 8.04449911 1.01031744 7.93423645 -2 7 C-2 3 -2 3 0 0 Z " fill="#65727C" transform="translate(405,253)"/>
<path d="M0 0 C0.33 0 0.66 0 1 0 C1.103125 1.11375 1.20625 2.2275 1.3125 3.375 C1.539375 4.57125 1.76625 5.7675 2 7 C2.99 7.66 3.98 8.32 5 9 C5.1875 12.125 5.1875 12.125 5 15 C3.35 15 1.7 15 0 15 C0 10.05 0 5.1 0 0 Z " fill="#808E99" transform="translate(239,246)"/>
<path d="M0 0 C0.66 0 1.32 0 2 0 C2 3.3 2 6.6 2 10 C0.02 10 -1.96 10 -4 10 C-3.67 7.36 -3.34 4.72 -3 2 C-2.01 2 -1.02 2 0 2 C0 1.34 0 0.68 0 0 Z " fill="#7E8D9A" transform="translate(410,245)"/>
<path d="M0 0 C0.99 0.66 1.98 1.32 3 2 C2.67 4.31 2.34 6.62 2 9 C0.68 9.33 -0.64 9.66 -2 10 C-3.125 7.75 -3.125 7.75 -4 5 C-3.25 2.75 -3.25 2.75 -2 1 C-1.34 0.67 -0.68 0.34 0 0 Z " fill="#758693" transform="translate(181,230)"/>
<path d="M0 0 C0.33 0 0.66 0 1 0 C1 5.94 1 11.88 1 18 C3.64 18.33 6.28 18.66 9 19 C8.34 20.32 7.68 21.64 7 23 C4.15886397 21.82157426 2.24122099 21.02235175 0 19 C-1.04809019 15.94877721 -1.02517327 13.01705781 -1 9.8125 C-1.02449219 8.98041016 -1.04898438 8.14832031 -1.07421875 7.29101562 C-1.11864719 5.19433515 -1.06727612 3.09607176 -1 1 C-0.67 0.67 -0.34 0.34 0 0 Z " fill="#902E39" transform="translate(65,215)"/>
<path d="M0 0 C2.64 0 5.28 0 8 0 C8.66 1.98 9.32 3.96 10 6 C9.01 5.67 8.02 5.34 7 5 C7 3.68 7 2.36 7 1 C6.01 1.495 6.01 1.495 5 2 C5 4.64 5 7.28 5 10 C2.08772731 6.71195019 0.50298788 4.40114397 0 0 Z " fill="#616F7B" transform="translate(256,229)"/>
<path d="M0 0 C2.9555377 2.75170751 5.11563315 5.41970299 7 9 C7 9.66 7 10.32 7 11 C4.36 11 1.72 11 -1 11 C-0.67 9.68 -0.34 8.36 0 7 C0 7.66 0 8.32 0 9 C0.66 8.67 1.32 8.34 2 8 C1.67 7.05125 1.34 6.1025 1 5.125 C0 2 0 2 0 0 Z " fill="#545F69" transform="translate(252,251)"/>
<path d="M0 0 C2.31 0 4.62 0 7 0 C7 1.65 7 3.3 7 5 C5.35 5.66 3.7 6.32 2 7 C0 4 0 4 0 0 Z " fill="#74808C" transform="translate(413,238)"/>
<path d="M0 0 C2.64 0 5.28 0 8 0 C7.67 1.65 7.34 3.3 7 5 C4.03 5 1.06 5 -2 5 C-1.34 4.67 -0.68 4.34 0 4 C0 2.68 0 1.36 0 0 Z " fill="#7D909E" transform="translate(349,256)"/>
<path d="M0 0 C1.48828125 1.14453125 1.48828125 1.14453125 3 3 C3.29296875 5.69921875 3.29296875 5.69921875 3.1875 8.6875 C3.16042969 9.68136719 3.13335937 10.67523438 3.10546875 11.69921875 C3.07066406 12.45847656 3.03585937 13.21773437 3 14 C2.67 14 2.34 14 2 14 C2 10.7 2 7.4 2 4 C1.34 4 0.68 4 0 4 C0 4.66 0 5.32 0 6 C-0.99 6 -1.98 6 -3 6 C-3 7.98 -3 9.96 -3 12 C-3.33 12 -3.66 12 -4 12 C-4.33 9.36 -4.66 6.72 -5 4 C-4.360625 3.71125 -3.72125 3.4225 -3.0625 3.125 C-0.84793921 2.17176549 -0.84793921 2.17176549 0 0 Z " fill="#4F5D66" transform="translate(410,241)"/>
<path d="M0 0 C0.66 0 1.32 0 2 0 C2.06058594 0.68707031 2.12117188 1.37414062 2.18359375 2.08203125 C2.26738281 2.98308594 2.35117188 3.88414062 2.4375 4.8125 C2.51871094 5.70582031 2.59992188 6.59914062 2.68359375 7.51953125 C2.93489767 10.12743559 2.93489767 10.12743559 4 13 C3.01 13.33 2.02 13.66 1 14 C1 13.34 1 12.68 1 12 C-0.32 12.33 -1.64 12.66 -3 13 C-2.67 12.01 -2.34 11.02 -2 10 C-1.34 10 -0.68 10 0 10 C0 6.7 0 3.4 0 0 Z " fill="#942B38" transform="translate(76,242)"/>
<path d="M0 0 C2.64 0 5.28 0 8 0 C8 1.98 8 3.96 8 6 C5.83125748 5.49396008 4.00032373 5.00016187 2 4 C2 3.34 2 2.68 2 2 C1.01 2.33 0.02 2.66 -1 3 C-0.67 2.01 -0.34 1.02 0 0 Z " fill="#768692" transform="translate(287,239)"/>
<path d="M0 0 C1.98 0 3.96 0 6 0 C6 1.65 6 3.3 6 5 C5.34 5 4.68 5 4 5 C4 5.66 4 6.32 4 7 C3.34 7 2.68 7 2 7 C2 6.34 2 5.68 2 5 C1.34 5 0.68 5 0 5 C0 3.35 0 1.7 0 0 Z " fill="#7C8C9B" transform="translate(343,236)"/>
<path d="M0 0 C0.66 0 1.32 0 2 0 C2.185625 0.9590625 2.185625 0.9590625 2.375 1.9375 C2.684375 2.9584375 2.684375 2.9584375 3 4 C3.66 4.33 4.32 4.66 5 5 C5 5.99 5 6.98 5 8 C3.35 8.66 1.7 9.32 0 10 C-0.19412181 8.52168779 -0.38012131 7.04230684 -0.5625 5.5625 C-0.66691406 4.73878906 -0.77132813 3.91507813 -0.87890625 3.06640625 C-0.91886719 2.38449219 -0.95882813 1.70257813 -1 1 C-0.67 0.67 -0.34 0.34 0 0 Z " fill="#7A8C9A" transform="translate(261,230)"/>
<path d="M0 0 C0.66 0.33 1.32 0.66 2 1 C2 7.27 2 13.54 2 20 C-0.31 20.99 -2.62 21.98 -5 23 C-5 22.01 -5 21.02 -5 20 C-3.02 19.67 -1.04 19.34 1 19 C0.67 12.73 0.34 6.46 0 0 Z " fill="#8F2731" transform="translate(144,214)"/>
<path d="M0 0 C0.598125 0.350625 1.19625 0.70125 1.8125 1.0625 C1.4825 1.3925 1.1525 1.7225 0.8125 2.0625 C0.57571284 4.75485776 0.39051975 7.42748156 0.25 10.125 C0.20681641 10.88361328 0.16363281 11.64222656 0.11914062 12.42382812 C0.01276367 14.30315438 -0.08789934 16.18280244 -0.1875 18.0625 C-0.5175 18.0625 -0.8475 18.0625 -1.1875 18.0625 C-1.5175 13.1125 -1.8475 8.1625 -2.1875 3.0625 C-3.1775 3.7225 -4.1675 4.3825 -5.1875 5.0625 C-5.1875 3.4125 -5.1875 1.7625 -5.1875 0.0625 C-2.1875 -0.9375 -2.1875 -0.9375 0 0 Z " fill="#394D56" transform="translate(374.1875,242.9375)"/>
<path d="M0 0 C1.8871875 0.061875 1.8871875 0.061875 3.8125 0.125 C3.8125 0.455 3.8125 0.785 3.8125 1.125 C1.8325 1.455 -0.1475 1.785 -2.1875 2.125 C-2.1875 3.445 -2.1875 4.765 -2.1875 6.125 C-1.5275 6.455 -0.8675 6.785 -0.1875 7.125 C-2.1675 8.115 -2.1675 8.115 -4.1875 9.125 C-5.1775 7.805 -6.1675 6.485 -7.1875 5.125 C-6.5275 4.465 -5.8675 3.805 -5.1875 3.125 C-5.8475 2.795 -6.5075 2.465 -7.1875 2.125 C-4.09861478 0.06574319 -3.47814073 -0.1140374 0 0 Z " fill="#55636D" transform="translate(401.1875,236.875)"/>
<path d="M0 0 C1.98 0.66 3.96 1.32 6 2 C5.01 2.33 4.02 2.66 3 3 C2.34 2.67 1.68 2.34 1 2 C1 3.98 1 5.96 1 8 C-3.67692308 6.52307692 -3.67692308 6.52307692 -5.3125 3.875 C-5.539375 3.25625 -5.76625 2.6375 -6 2 C-5.34 2 -4.68 2 -4 2 C-4 2.66 -4 3.32 -4 4 C-3.34 4 -2.68 4 -2 4 C-2 3.34 -2 2.68 -2 2 C-1.34 2 -0.68 2 0 2 C0 1.34 0 0.68 0 0 Z " fill="#586671" transform="translate(349,239)"/>
<path d="M0 0 C0.99 0.33 1.98 0.66 3 1 C3 2.98 3 4.96 3 7 C0.03 6.505 0.03 6.505 -3 6 C-2.625 3.5625 -2.625 3.5625 -2 1 C-1.34 0.67 -0.68 0.34 0 0 Z " fill="#7B8C99" transform="translate(191,245)"/>
<path d="M0 0 C1.1875 1.5 1.1875 1.5 2 4 C1.27101296 6.78824238 0.1843275 9.37665092 -1 12 C-2.54571278 9.68143083 -3.79618552 7.49361571 -5 5 C-3.35 4.34 -1.7 3.68 0 3 C0 2.01 0 1.02 0 0 Z " fill="#64717B" transform="translate(266,235)"/>
<path d="M0 0 C3.71599191 -0.20086443 4.77208445 -0.1519437 8 2 C8 2.66 8 3.32 8 4 C8.66 4.33 9.32 4.66 10 5 C7.36 5 4.72 5 2 5 C1.34 3.35 0.68 1.7 0 0 Z " fill="#7D8C99" transform="translate(193,256)"/>
<path d="M0 0 C0.33 0 0.66 0 1 0 C1.07347656 0.90492188 1.07347656 0.90492188 1.1484375 1.828125 C1.22320312 2.62734375 1.29796875 3.4265625 1.375 4.25 C1.44460937 5.03890625 1.51421875 5.8278125 1.5859375 6.640625 C2.01507113 9.085877 2.78600638 10.84836903 4 13 C3.01 13.495 3.01 13.495 2 14 C2 13.01 2 12.02 2 11 C0.35 11.66 -1.3 12.32 -3 13 C-3 12.01 -3 11.02 -3 10 C-2.34 10 -1.68 10 -1 10 C-0.67 6.7 -0.34 3.4 0 0 Z " fill="#982932" transform="translate(134,242)"/>
<path d="M0 0 C1.66666667 0 3.33333333 0 5 0 C5 1.98 5 3.96 5 6 C3.35 6.33 1.7 6.66 0 7 C0 4.69 0 2.38 0 0 Z " fill="#7D8E9A" transform="translate(295,246)"/>
<path d="M0 0 C0.598125 0.45375 1.19625 0.9075 1.8125 1.375 C3.50590652 2.63295913 5.24477086 3.82984724 7 5 C5.68 5.99 4.36 6.98 3 8 C3 7.01 3 6.02 3 5 C1.35 5.33 -0.3 5.66 -2 6 C-2.33 5.01 -2.66 4.02 -3 3 C-2.01 2.01 -1.02 1.02 0 0 Z " fill="#5B6A76" transform="translate(217,239)"/>
<path d="M0 0 C1.32 0.66 2.64 1.32 4 2 C4 3.32 4 4.64 4 6 C3.34 6.66 2.68 7.32 2 8 C-0.125 7.625 -0.125 7.625 -2 7 C-1.34 6.67 -0.68 6.34 0 6 C0 4.02 0 2.04 0 0 Z " fill="#5E6974" transform="translate(359,229)"/>
<path d="M0 0 C-0.144375 1.2375 -0.28875 2.475 -0.4375 3.75 C-1.07833262 9.49002931 -1.5421622 15.24293318 -2 21 C-2.33 21 -2.66 21 -3 21 C-3.33 14.4 -3.66 7.8 -4 1 C-2 0 -2 0 0 0 Z " fill="#BD3747" transform="translate(69,212)"/>
<path d="M0 0 C2 1.1875 2 1.1875 4 3 C4.25 5.6875 4.25 5.6875 4 8 C2.68 8.33 1.36 8.66 0 9 C-1.53445094 5.93109813 -0.54984289 3.29905734 0 0 Z " fill="#798A98" transform="translate(391,245)"/>
<path d="M0 0 C1.65 0 3.3 0 5 0 C5 2.64 5 5.28 5 8 C3 7 3 7 1.875 3.9375 C1.58625 2.968125 1.2975 1.99875 1 1 C1 3.64 1 6.28 1 9 C0.67 9 0.34 9 0 9 C0 6.03 0 3.06 0 0 Z " fill="#82909C" transform="translate(368,229)"/>
<path d="M0 0 C0.66 0.33 1.32 0.66 2 1 C1.34 2.65 0.68 4.3 0 6 C-2.64 6 -5.28 6 -8 6 C-5.63404067 3.38499232 -3.13950774 1.61000397 0 0 Z " fill="#7E8E9B" transform="translate(228,255)"/>
<path d="M0 0 C1.32 0 2.64 0 4 0 C4 0.99 4 1.98 4 3 C4.66 3 5.32 3 6 3 C6 3.66 6 4.32 6 5 C6.66 5 7.32 5 8 5 C7.67 5.99 7.34 6.98 7 8 C6.67 7.34 6.34 6.68 6 6 C5.01 6.33 4.02 6.66 3 7 C0 3.375 0 3.375 0 0 Z " fill="#7C8E9C" transform="translate(416,246)"/>
<path d="M0 0 C0.66 0 1.32 0 2 0 C2.33 2.31 2.66 4.62 3 7 C1.35 7.33 -0.3 7.66 -2 8 C-1.47731534 5.23723823 -0.89130413 2.6739124 0 0 Z " fill="#778996" transform="translate(267,239)"/>
<path d="M0 0 C-0.33 1.65 -0.66 3.3 -1 5 C-2.65 4.67 -4.3 4.34 -6 4 C-6.33 3.01 -6.66 2.02 -7 1 C-4.53721199 -0.231394 -2.7204945 -0.07159196 0 0 Z " fill="#798894" transform="translate(314,257)"/>
<path d="M0 0 C3.01111938 4.51667907 3.10067926 7.6639991 3 13 C1.12396022 10.18594033 0.50907198 8.59075334 -0.1875 5.375 C-0.36667969 4.57835937 -0.54585938 3.78171875 -0.73046875 2.9609375 C-0.81941406 2.31382812 -0.90835937 1.66671875 -1 1 C-0.67 0.67 -0.34 0.34 0 0 Z " fill="#606C78" transform="translate(417,248)"/>
<path d="M0 0 C0.33 0 0.66 0 1 0 C1.103125 1.216875 1.20625 2.43375 1.3125 3.6875 C1.76355692 7.43525234 2.86866555 9.84933169 5 13 C5 13.66 5 14.32 5 15 C4.34 15 3.68 15 3 15 C-0.91058106 10.48779109 -0.29469532 5.62104043 0 0 Z " fill="#546069" transform="translate(213,245)"/>
<path d="M0 0 C2.64 0 5.28 0 8 0 C8 0.99 8 1.98 8 3 C5.36 3.33 2.72 3.66 0 4 C0 2.68 0 1.36 0 0 Z " fill="#6E7981" transform="translate(250,238)"/>
<path d="M0 0 C-0.33 0.66 -0.66 1.32 -1 2 C-2.99609375 2.484375 -2.99609375 2.484375 -5.4375 2.75 C-6.64212891 2.89695313 -6.64212891 2.89695313 -7.87109375 3.046875 C-10 3 -10 3 -12 1 C-7.58774263 -0.47075246 -4.51718381 -1.36884358 0 0 Z " fill="#5D6B75" transform="translate(358,228)"/>
<path d="M0 0 C0.33 0.66 0.66 1.32 1 2 C3.31 2 5.62 2 8 2 C8 2.66 8 3.32 8 4 C5 6 5 6 2.8125 5.625 C2.214375 5.41875 1.61625 5.2125 1 5 C1.66 5 2.32 5 3 5 C3 4.34 3 3.68 3 3 C2.01 3 1.02 3 0 3 C0 2.01 0 1.02 0 0 Z " fill="#7E8E9B" transform="translate(331,239)"/>
<path d="M0 0 C2.31 0 4.62 0 7 0 C6.67 2.31 6.34 4.62 6 7 C5.67 6.34 5.34 5.68 5 5 C4.01 4.67 3.02 4.34 2 4 C2.33 3.34 2.66 2.68 3 2 C2.01 2 1.02 2 0 2 C0 1.34 0 0.68 0 0 Z " fill="#586773" transform="translate(439,238)"/>
<path d="M0 0 C0.99 0.33 1.98 0.66 3 1 C2.67 2.65 2.34 4.3 2 6 C0.68 5.34 -0.64 4.68 -2 4 C-2 3.01 -2 2.02 -2 1 C-1.34 0.67 -0.68 0.34 0 0 Z " fill="#7B8B98" transform="translate(357,229)"/>
<path d="M0 0 C1.9375 0.8125 1.9375 0.8125 4 2 C4.33 2.99 4.66 3.98 5 5 C3.35 5.33 1.7 5.66 0 6 C-0.38218767 4.34385343 -0.71395102 2.67542976 -1 1 C-0.67 0.67 -0.34 0.34 0 0 Z " fill="#7B8C99" transform="translate(179,243)"/>
<path d="M0 0 C1.32 0.33 2.64 0.66 4 1 C2.85546875 2.48828125 2.85546875 2.48828125 1 4 C-1.69921875 4.29296875 -1.69921875 4.29296875 -4.6875 4.1875 C-5.68136719 4.16042969 -6.67523438 4.13335937 -7.69921875 4.10546875 C-8.45847656 4.07066406 -9.21773438 4.03585937 -10 4 C-10 3.67 -10 3.34 -10 3 C-6.7 3 -3.4 3 0 3 C0 2.01 0 1.02 0 0 Z " fill="#475462" transform="translate(294,258)"/>
<path d="M0 0 C0 0.33 0 0.66 0 1 C-2.31 1 -4.62 1 -7 1 C-7 1.66 -7 2.32 -7 3 C-8.98 3.33 -10.96 3.66 -13 4 C-8.74504132 -0.44836589 -5.9812469 -0.09647172 0 0 Z " fill="#4E5A67" transform="translate(204,237)"/>
<path d="M0 0 C0.33 0.66 0.66 1.32 1 2 C0.34 2 -0.32 2 -1 2 C-1 2.99 -1 3.98 -1 5 C-2.32 5.33 -3.64 5.66 -5 6 C-5.33 4.35 -5.66 2.7 -6 1 C-5.01 1 -4.02 1 -3 1 C-2.01 0.67 -1.02 0.34 0 0 Z " fill="#61707D" transform="translate(420,242)"/>
<path d="M0 0 C1.98 0 3.96 0 6 0 C6 1.32 6 2.64 6 4 C6.33 4.66 6.66 5.32 7 6 C5.02 5.34 3.04 4.68 1 4 C1.66 3.67 2.32 3.34 3 3 C3 2.34 3 1.68 3 1 C2.01 0.67 1.02 0.34 0 0 Z " fill="#83919C" transform="translate(376,238)"/>
<path d="M0 0 C1.32 0 2.64 0 4 0 C4 2.64 4 5.28 4 8 C2.68 7.67 1.36 7.34 0 7 C0.99 5.35 1.98 3.7 3 2 C2.01 1.67 1.02 1.34 0 1 C0 0.67 0 0.34 0 0 Z " fill="#A1303B" transform="translate(113,234)"/>
<path d="M0 0 C1.98 0.99 1.98 0.99 4 2 C3.67 3.32 3.34 4.64 3 6 C2.01 5.67 1.02 5.34 0 5 C0 3.35 0 1.7 0 0 Z " fill="#697C86" transform="translate(406,238)"/>
<path d="M0 0 C0.66 0.33 1.32 0.66 2 1 C1.67 1.66 1.34 2.32 1 3 C0.34 3 -0.32 3 -1 3 C-1 3.66 -1 4.32 -1 5 C-1.66 5 -2.32 5 -3 5 C-3.33 5.66 -3.66 6.32 -4 7 C-4 5.35 -4 3.7 -4 2 C-2.125 0.9375 -2.125 0.9375 0 0 Z " fill="#C83849" transform="translate(70,257)"/>
<path d="M0 0 C1.65 0 3.3 0 5 0 C5.33 1.32 5.66 2.64 6 4 C5.01 4.495 5.01 4.495 4 5 C3.67 4.34 3.34 3.68 3 3 C2.01 2.67 1.02 2.34 0 2 C0 1.34 0 0.68 0 0 Z " fill="#7C8D9A" transform="translate(434,254)"/>
<path d="M0 0 C1.65 0 3.3 0 5 0 C5.33 0.99 5.66 1.98 6 3 C5.01 3.33 4.02 3.66 3 4 C3 3.34 3 2.68 3 2 C1.68 2.33 0.36 2.66 -1 3 C-0.67 2.01 -0.34 1.02 0 0 Z " fill="#B2303A" transform="translate(74,252)"/>
<path d="M0 0 C0.6875 1.6875 0.6875 1.6875 1 4 C-0.4375 6.75 -0.4375 6.75 -2 9 C-3 6 -3 6 -1.5625 2.8125 C-1.046875 1.884375 -0.53125 0.95625 0 0 Z " fill="#586C73" transform="translate(186,250)"/>
</svg>
